<svg viewBox="0 0 24 24" xmlns="http://www.w3.org/2000/svg"><path d="M23.155 23.759c-.345.203-.475.226-1.42.233-.477.005-5.227.008-10.554.008-7.728 0-9.727-.012-9.887-.05-.322-.081-.521-.198-.783-.46s-.379-.461-.46-.785c-.04-.159-.05-2.119-.05-9.787C-.002 1.378-.002 1.454.074 1.219.182.89.255.772.515.514.772.255.89.182 1.22.074 1.455-.002 1.301 0 12.86.001c7.701 0 9.686.01 9.846.05.323.08.522.198.784.46.261.261.378.46.458.783.04.159.05 2.176.051 9.925.002 11.603.003 11.325-.074 11.569a1.787 1.787 0 0 1-.77.972zm-3.951-17.24-1.768 1.756-.008 3.072-.007 3.07-4.21.026-4.208.029-.008 1.128-.006 1.127-4.245 4.244 8.061-.052 8.06-.053.053-8.051.053-8.052zm-4.58 3.112.007-1.976 4.625-4.626-8.06.053-8.061.052-.053 8.052-.053 8.05 1.578-1.569 1.58-1.57.016-2.218.013-2.22 4.186-.016a457.77 457.79 0 0 0 4.198-.026c.007-.007.017-.9.022-1.987z"/></svg>