<svg xmlns="http://www.w3.org/2000/svg" viewBox="0 0 24 24"><path d="M11.685 23.962c-.286-.074-.366-.13-.864-.62-.251-.246-2.733-2.725-5.515-5.507C1.27 13.799.232 12.749.169 12.645.043 12.435 0 12.27 0 11.996c0-.273.043-.438.17-.649.062-.104 1.08-1.133 5.084-5.138C11.28.182 11.24.222 11.402.139 11.63.023 11.73 0 12 0c.27 0 .37.023.598.139.163.083.082.003 6.117 6.04 4.022 4.022 5.053 5.064 5.116 5.168.126.211.169.376.169.65 0 .273-.043.438-.17.648-.062.104-1.11 1.163-5.156 5.21-6.058 6.06-5.912 5.915-6.08 6.002a1.32 1.32 0 01-.91.105zm6.939-11.066l-1.84-.006-1.608 1.6-1.607 1.599-2.212-2.184-2.213-2.183-.593.585-.592.585H3.526l4.237 4.182L12 21.256l4.232-4.177 4.232-4.177zm-4.017-.767l1.036-1.028H20.474l-4.237-4.182L12 2.737 7.768 6.914 3.536 11.09l1.644.005 1.644.005 1.167-1.15 1.166-1.152 2.195 2.177a338.08 338.08 0 002.206 2.179c.007 0 .478-.461 1.049-1.026z"/></svg>